<svg width="95" height="95" viewBox="0 0 95 95" fill="none" xmlns="http://www.w3.org/2000/svg">
<path d="M89.756 1.0746e-07H5.23938C2.34543 0.00173962 -0.000579727 2.34891 1.0746e-07 5.24402V89.7606C0.00173962 92.6546 2.34891 95.0006 5.24402 95H50.7471V58.2617H38.4082V43.8818H50.7471V33.2993C50.7471 21.0271 58.2391 14.3474 69.1864 14.3474C74.4298 14.3474 78.9357 14.7382 80.249 14.9128V27.7393H72.7002C66.7441 27.7393 65.5908 30.5694 65.5908 34.7234V43.8818H79.8315L77.9761 58.2617H65.5908V95H89.756C92.6517 95.0006 94.9994 92.654 95 89.7583C95 89.7577 95 89.7571 95 89.756V5.23938C94.9988 2.34543 92.6511 -0.000579727 89.756 1.0746e-07Z" fill="white"/>
</svg>
