<svg width="69" height="67" viewBox="0 0 69 67" fill="none" xmlns="http://www.w3.org/2000/svg">
<path d="M34.5 0C53.5612 0 69 15.3704 69 34.3473C68.9982 41.544 66.7295 48.5589 62.5133 54.4046C58.2971 60.2503 52.3458 64.6325 45.4969 66.9344C43.7719 67.2779 43.125 66.2045 43.125 65.3029C43.125 64.1437 43.1681 60.4513 43.1681 55.8574C43.1681 52.6373 42.09 50.5765 40.8394 49.5031C48.5156 48.6444 56.58 45.7249 56.58 32.5441C56.58 28.7659 55.2431 25.7176 53.0437 23.3133C53.3887 22.4546 54.5962 18.934 52.6987 14.2112C52.6987 14.2112 49.8094 13.2667 43.2113 17.7318C40.4513 16.959 37.5188 16.5726 34.5863 16.5726C31.6538 16.5726 28.7213 16.959 25.9613 17.7318C19.3631 13.3096 16.4738 14.2112 16.4738 14.2112C14.5763 18.934 15.7838 22.4546 16.1288 23.3133C13.9294 25.7176 12.5925 28.8088 12.5925 32.5441C12.5925 45.682 20.6138 48.6444 28.29 49.5031C27.2981 50.3618 26.3925 51.8645 26.0906 54.0971C24.1069 54.9987 19.1475 56.4584 16.0425 51.2634C15.3956 50.233 13.455 47.6999 10.7381 47.7428C7.84875 47.7857 9.57375 49.3743 10.7813 50.0183C12.2475 50.8341 13.9294 53.8824 14.3175 54.8699C15.0075 56.8019 17.25 60.4943 25.9181 58.9057C25.9181 61.7823 25.9613 64.4871 25.9613 65.3029C25.9613 66.2045 25.3144 67.2349 23.5894 66.9344C16.718 64.6573 10.7413 60.2839 6.50709 54.4347C2.27289 48.5854 -0.00379707 41.5573 4.75372e-06 34.3473C4.75372e-06 15.3704 15.4388 0 34.5 0Z" fill="white"/>
</svg>
