<svg width="98" height="96" viewBox="0 0 98 96" fill="none" xmlns="http://www.w3.org/2000/svg">
<path d="M96.0666 37.6051L95.9333 37.2488L82.6406 2.22551C82.3674 1.53824 81.888 0.954561 81.2696 0.556352C80.6513 0.158143 79.925 -0.0346176 79.1926 0.005108C78.4603 0.0448336 77.7586 0.315053 77.1861 0.777862C76.6135 1.24067 76.1988 1.87285 76.0001 2.58572L67.0233 30.3336H30.6731L21.6963 2.58572C21.4932 1.87655 21.0765 1.24883 20.5039 0.789718C19.9314 0.330606 19.2316 0.0628813 18.5015 0.0237149C17.7714 -0.0154515 17.0474 0.175884 16.43 0.571156C15.8125 0.966428 15.3322 1.54602 15.0558 2.22947L1.76704 37.2528L1.62984 37.6051C-0.283435 42.6546 -0.518925 48.1954 0.95888 53.3919C2.43669 58.5884 5.54765 63.1588 9.82264 66.4138L9.86968 66.4534L9.98728 66.5405L30.2145 81.8474L40.2497 89.5068L46.3414 94.1618C47.0569 94.7082 47.9295 95.0039 48.8266 95.0039C49.7238 95.0039 50.5964 94.7082 51.3119 94.1618L57.4075 89.5068L67.4427 81.8474L87.815 66.4495L87.8698 66.4099C92.1447 63.1556 95.2559 58.5861 96.7344 53.3904C98.2128 48.1947 97.9785 42.6545 96.0666 37.6051Z" fill="white"/>
</svg>
