<svg width="95" height="95" viewBox="0 0 95 95" fill="none" xmlns="http://www.w3.org/2000/svg">
<path fill-rule="evenodd" clip-rule="evenodd" d="M47.5002 0C34.5998 0 32.9822 0.0546894 27.9158 0.28585C22.86 0.51644 19.407 1.31949 16.3857 2.49378C13.2621 3.70745 10.6132 5.33165 7.97235 7.9723C5.33165 10.6132 3.7075 13.2621 2.49378 16.3857C1.31949 19.407 0.51644 22.86 0.28585 27.9158C0.0546894 32.9822 0 34.5997 0 47.5001C0 60.4 0.0546894 62.0179 0.28585 67.0844C0.51644 72.14 1.31949 75.5929 2.49378 78.6144C3.7075 81.738 5.33165 84.387 7.97235 87.0278C10.6132 89.6683 13.2621 91.2923 16.3857 92.5063C19.407 93.6804 22.86 94.4834 27.9158 94.7139C32.9822 94.9453 34.5998 94.9999 47.5002 94.9999C60.4001 94.9999 62.018 94.9453 67.084 94.7139C72.1401 94.4834 75.593 93.6804 78.6145 92.5063C81.7376 91.2923 84.3866 89.6683 87.0275 87.0278C89.6683 84.387 91.2924 81.738 92.5064 78.6144C93.6805 75.5929 94.4835 72.14 94.714 67.0844C94.9454 62.0179 95 60.4 95 47.5001C95 34.5997 94.9454 32.9822 94.714 27.9158C94.4835 22.86 93.6805 19.407 92.5064 16.3857C91.2924 13.2621 89.6683 10.6132 87.0275 7.9723C84.3866 5.33165 81.7376 3.70745 78.6145 2.49378C75.593 1.31949 72.1401 0.51644 67.084 0.28585C62.018 0.0546894 60.4001 0 47.5002 0ZM47.5002 8.55854C60.1829 8.55854 61.6854 8.607 66.6939 8.8355C71.3252 9.04671 73.8402 9.82049 75.5141 10.471C77.7312 11.3327 79.3134 12.362 80.9755 14.0242C82.638 15.6864 83.6672 17.2686 84.5291 19.4858C85.1796 21.1596 85.9531 23.6747 86.1646 28.3059C86.3931 33.3146 86.4416 34.817 86.4416 47.5001C86.4416 60.1828 86.3931 61.6853 86.1646 66.6938C85.9531 71.3251 85.1796 73.8405 84.5291 75.514C83.6672 77.7311 82.638 79.3138 80.9755 80.9759C79.3134 82.6379 77.7312 83.6671 75.5141 84.529C73.8402 85.1795 71.3252 85.953 66.6939 86.1645C61.6863 86.393 60.1839 86.4415 47.5002 86.4415C34.816 86.4415 33.314 86.393 28.3059 86.1645C23.6747 85.953 21.1596 85.1795 19.4858 84.529C17.2687 83.6671 15.6864 82.6379 14.0243 80.9759C12.3622 79.3138 11.3327 77.7311 10.471 75.514C9.82054 73.8405 9.04671 71.3251 8.8355 66.6938C8.607 61.6853 8.55854 60.1828 8.55854 47.5001C8.55854 34.817 8.607 33.3146 8.8355 28.3059C9.04671 23.6747 9.82054 21.1596 10.471 19.4858C11.3327 17.2686 12.362 15.6864 14.0243 14.0242C15.6864 12.362 17.2687 11.3327 19.4858 10.471C21.1596 9.82049 23.6747 9.04671 28.3059 8.8355C33.3146 8.607 34.817 8.55854 47.5002 8.55854Z" fill="white"/>
<path fill-rule="evenodd" clip-rule="evenodd" d="M47.4998 63.3336C38.7552 63.3336 31.6664 56.2443 31.6664 47.5001C31.6664 38.7555 38.7552 31.6667 47.4998 31.6667C56.2445 31.6667 63.3332 38.7555 63.3332 47.5001C63.3332 56.2443 56.2445 63.3336 47.4998 63.3336ZM47.4998 23.1082C34.0284 23.1082 23.1079 34.0287 23.1079 47.5001C23.1079 60.9716 34.0284 71.892 47.4998 71.892C60.9713 71.892 71.8916 60.9716 71.8916 47.5001C71.8916 34.0287 60.9713 23.1082 47.4998 23.1082Z" fill="white"/>
<path fill-rule="evenodd" clip-rule="evenodd" d="M78.5558 22.1445C78.5558 25.2925 76.0038 27.8444 72.8554 27.8444C69.7075 27.8444 67.1555 25.2925 67.1555 22.1445C67.1555 18.9964 69.7075 16.4443 72.8554 16.4443C76.0038 16.4443 78.5558 18.9964 78.5558 22.1445Z" fill="white"/>
</svg>
