<svg width="95" height="95" viewBox="0 0 95 95" fill="none" xmlns="http://www.w3.org/2000/svg">
<path d="M21.2444 29.6875H0V95H21.2444V29.6875Z" fill="white"/>
<path d="M79.1113 30.4534C78.8856 30.3822 78.6719 30.305 78.4344 30.2397C78.1494 30.1744 77.8644 30.1209 77.5734 30.0734C76.4453 29.8478 75.2103 29.6875 73.7616 29.6875C61.3759 29.6875 53.5206 38.6947 50.9319 42.1741V29.6875H29.6875V95H50.9319V59.375C50.9319 59.375 66.9869 37.0144 73.7616 53.4375C73.7616 68.0972 73.7616 95 73.7616 95H95V50.9259C95 41.0578 88.2372 32.8344 79.1113 30.4534Z" fill="white"/>
<path d="M10.3906 20.7812C16.1292 20.7812 20.7812 16.1292 20.7812 10.3906C20.7812 4.65204 16.1292 0 10.3906 0C4.65204 0 0 4.65204 0 10.3906C0 16.1292 4.65204 20.7812 10.3906 20.7812Z" fill="white"/>
</svg>
