<svg width="89" height="74" viewBox="0 0 89 74" fill="none" xmlns="http://www.w3.org/2000/svg">
<path d="M89 8.76046C85.6903 10.2462 82.1637 11.2309 78.4869 11.7091C82.2694 9.398 85.1563 5.76631 86.5136 1.38892C82.9869 3.54061 79.0932 5.06046 74.9436 5.90862C71.5949 2.25985 66.8223 0 61.6158 0C51.5143 0 43.3819 8.39046 43.3819 18.6765C43.3819 20.1565 43.5043 21.5795 43.8047 22.9343C28.6358 22.1772 15.2134 14.7374 6.19662 3.404C4.62244 6.19892 3.69906 9.398 3.69906 12.8418C3.69906 19.3083 6.95312 25.0405 11.8036 28.3591C8.87219 28.3022 5.99637 27.4312 3.56 26.0594C3.56 26.1163 3.56 26.1903 3.56 26.2643C3.56 35.3378 9.88456 42.8745 18.1782 44.6106C16.6931 45.0262 15.0744 45.2254 13.3945 45.2254C12.2264 45.2254 11.0471 45.1571 9.94019 44.9066C12.3042 52.3009 19.0126 57.7371 26.9893 57.9135C20.7815 62.8829 12.8994 65.8771 4.36656 65.8771C2.87025 65.8771 1.43512 65.8088 0 65.6209C8.08231 70.9546 17.6609 74 27.9905 74C61.5657 74 79.922 45.5385 79.922 20.868C79.922 20.0426 79.8942 19.2457 79.8552 18.4545C83.4764 15.8246 86.5191 12.5402 89 8.76046Z" fill="white"/>
</svg>
